<svg id="icons" xmlns="http://www.w3.org/2000/svg" viewBox="0 0 64 64"><title>landmark-monument-rio-de-janeiro-christ-cristo-brazil</title><g id="landmark-monument-rio-de-janeiro-christ-cristo-brazil"><polygon points="45.71 55 48 63 16 63 18.29 55 21 55 43 55 45.71 55" fill="#fff"/><polygon points="42.91 51 43 55 21 55 21.09 51 23 51 28 51 32 51 36 51 41 51 42.91 51" fill="#fff"/><polygon points="41 37 41 51 36 51 36.02 35.67 36.1 35.42 41 37" fill="#d6edfc"/><polygon points="36.1 35.42 36.02 35.67 36 51 32 51 32 34.09 36.1 35.42" fill="#d6edfc"/><polygon points="32 34.09 32 51 28 51 28 33 28.06 32.81 32 34.09" fill="#d6edfc"/><polygon points="28.06 32.81 28 33 28 51 23 51 23 31.18 28.06 32.81" fill="#d6edfc"/><path d="M56.09,17.73l-2,.57L54,18V14h5a3.85,3.85,0,0,1-2.91,3.73Z" fill="#b4d8ed"/><path d="M10,14v4l-.08.3-2-.57A3.85,3.85,0,0,1,5,14Z" fill="#b4d8ed"/><polygon points="54 18 54.08 18.3 41 22 41 14 54 14 54 18" fill="#fff"/><polygon points="32 34.09 28.06 32.81 23 31.18 23 22 23 14 25 14 26 14 30 14 34 14 38 14 39 14 41 14 41 22 41 37 36.1 35.42 32 34.09" fill="#fff"/><polygon points="23 14 23 22 9.92 18.3 10 18 10 14 23 14" fill="#fff"/><rect x="30" y="11" width="4" height="3" fill="#fff"/><path d="M34,11a2,2,0,0,0,2-2V4l3,10H34Z" fill="#b4d8ed"/><path d="M30,11v3H25L28,4V9A2,2,0,0,0,30,11Z" fill="#b4d8ed"/><path d="M36,4V9a2,2,0,0,1-2,2H30a2,2,0,0,1-2-2V4a3,3,0,0,1,3-3h2A3,3,0,0,1,36,4Z" fill="#fff"/><path d="M34,11H30a2,2,0,0,1-2-2V4a3,3,0,0,1,3-3h2a3,3,0,0,1,3,3V9A2,2,0,0,1,34,11Z" fill="none" stroke="#49789c" stroke-linecap="round" stroke-linejoin="round" stroke-width="2"/><path d="M41,14H59a3.85,3.85,0,0,1-2.91,3.73l-2,.57L41,22" fill="none" stroke="#49789c" stroke-linejoin="round" stroke-width="2"/><path d="M23,22,9.92,18.3l-2-.57A3.85,3.85,0,0,1,5,14H23" fill="none" stroke="#49789c" stroke-linejoin="round" stroke-width="2"/><line x1="10" y1="14" x2="10" y2="18" fill="none" stroke="#49789c" stroke-linecap="round" stroke-linejoin="round" stroke-width="2"/><line x1="54" y1="14" x2="54" y2="18" fill="none" stroke="#49789c" stroke-linecap="round" stroke-linejoin="round" stroke-width="2"/><polyline points="34 14 38 14 39 14 41 14 41 22 41 37 41 51" fill="none" stroke="#49789c" stroke-linecap="round" stroke-linejoin="round" stroke-width="2"/><polyline points="23 51 23 31.18 23 22 23 14 25 14 26 14 30 14" fill="none" stroke="#49789c" stroke-linecap="round" stroke-linejoin="round" stroke-width="2"/><polyline points="34 11 34 14 30 14 30 11" fill="none" stroke="#49789c" stroke-linecap="round" stroke-linejoin="round" stroke-width="2"/><polyline points="22.3 30.95 23 31.18 28.06 32.81 32 34.09 36.1 35.42 41 37 41.7 37.23" fill="none" stroke="#49789c" stroke-linejoin="round" stroke-width="2"/><path d="M43,55h0a3.58,3.58,0,0,1,3.45,2.6L48,63H16l1.55-5.4A3.58,3.58,0,0,1,21,55h0" fill="none" stroke="#49789c" stroke-linecap="round" stroke-linejoin="round" stroke-width="2"/><polyline points="30 5 32 5 34 5" fill="none" stroke="#49789c" stroke-linejoin="round" stroke-width="2"/><line x1="32" y1="5" x2="32" y2="8" fill="none" stroke="#49789c" stroke-linejoin="round" stroke-width="2"/><line x1="28" y1="33" x2="28" y2="51" fill="none" stroke="#49789c" stroke-linejoin="round" stroke-width="2"/><polyline points="32 34 32 34.09 32 51" fill="none" stroke="#49789c" stroke-linejoin="round" stroke-width="2"/><line x1="36.02" y1="35.67" x2="36" y2="51" fill="none" stroke="#49789c" stroke-linejoin="round" stroke-width="2"/><line x1="36" y1="4" x2="39" y2="14" fill="none" stroke="#49789c" stroke-linecap="round" stroke-linejoin="round" stroke-width="2"/><line x1="28" y1="4" x2="25" y2="14" fill="none" stroke="#49789c" stroke-linecap="round" stroke-linejoin="round" stroke-width="2"/><path d="M43,55H21l.05-2a2,2,0,0,1,2-2H41a2,2,0,0,1,2,2Z" fill="none" stroke="#49789c" stroke-linejoin="round" stroke-width="2"/></g></svg>