<?xml version="1.0" standalone="no"?>
<!DOCTYPE svg PUBLIC "-//W3C//DTD SVG 20010904//EN"
 "http://www.w3.org/TR/2001/REC-SVG-20010904/DTD/svg10.dtd">
<svg version="1.0" xmlns="http://www.w3.org/2000/svg"
 width="512.000000pt" height="512.000000pt" viewBox="0 0 512.000000 512.000000"
 preserveAspectRatio="xMidYMid meet">
<metadata>
Created by potrace 1.11, written by Peter Selinger 2001-2013
</metadata>
<g transform="translate(0.000000,512.000000) scale(0.100000,-0.100000)"
fill="#000000" stroke="none">
<path d="M3019 4694 c-85 -26 -148 -124 -134 -210 8 -51 32 -95 71 -129 l35
-31 -21 -79 c-12 -44 -24 -89 -26 -100 -2 -11 -17 -65 -33 -120 -30 -108 -25
-103 -91 -90 -8 2 -18 4 -22 4 -4 1 -8 11 -10 23 -2 12 -12 23 -23 25 -44 9
-334 11 -390 2 -122 -19 -152 -28 -151 -51 1 -11 -6 -22 -14 -24 -8 -1 -28 -5
-45 -9 l-30 -6 -38 128 c-39 134 -43 153 -28 153 16 0 71 60 90 99 60 116 4
268 -117 323 -88 40 -202 17 -269 -53 -138 -146 -46 -388 153 -401 l49 -3 32
-99 c43 -135 45 -146 32 -146 -17 0 -134 -56 -209 -101 -99 -58 -95 -55 -82
-72 10 -12 4 -21 -34 -52 l-47 -39 -35 40 c-20 21 -73 80 -118 129 -140 154
-134 146 -118 178 20 38 20 127 0 166 -41 78 -111 116 -202 109 -121 -10 -200
-118 -173 -236 13 -57 41 -96 92 -129 47 -30 123 -35 177 -13 37 15 20 29 207
-175 l83 -90 -54 -55 c-29 -30 -75 -81 -100 -114 -42 -52 -46 -60 -33 -74 14
-13 12 -20 -15 -63 -24 -39 -33 -47 -46 -40 -9 5 -39 19 -67 31 -53 24 -177
82 -336 157 l-97 45 -5 44 c-15 135 -168 213 -287 148 -121 -66 -144 -218 -48
-314 84 -84 225 -75 298 17 l20 26 73 -33 c39 -19 124 -58 187 -88 63 -30 135
-63 159 -73 26 -12 41 -24 38 -32 -43 -100 -79 -196 -95 -254 -20 -72 -20 -72
0 -79 17 -5 19 -11 13 -47 -4 -23 -9 -44 -11 -46 -2 -2 -44 2 -93 9 l-89 13
-5 39 c-7 50 -46 109 -91 137 -150 93 -344 -53 -296 -225 16 -55 80 -121 134
-135 81 -22 172 9 217 72 20 29 24 30 75 25 107 -11 99 1 98 -144 -1 -182 5
-226 34 -230 12 -2 22 -9 23 -15 0 -11 6 -41 11 -69 2 -7 -66 -30 -195 -65
l-199 -54 -39 41 c-46 48 -77 62 -141 65 -59 3 -114 -21 -155 -68 -114 -130
-20 -327 154 -327 91 0 181 78 190 164 6 52 -22 39 230 106 l141 38 28 -76
c36 -100 86 -201 141 -287 25 -38 47 -72 48 -73 2 -2 11 1 21 6 15 8 24 2 50
-31 l32 -40 -166 -130 c-92 -71 -173 -134 -179 -139 -8 -7 -27 -3 -57 12 -81
39 -185 26 -257 -31 -110 -87 -116 -254 -13 -354 89 -87 227 -90 323 -9 71 60
100 182 63 266 l-20 45 165 128 165 128 41 -40 c74 -70 91 -84 162 -135 102
-72 142 -92 152 -73 7 12 17 10 61 -12 28 -14 52 -31 51 -37 0 -6 -28 -76 -63
-156 -57 -132 -64 -145 -86 -142 -77 12 -187 -65 -207 -144 -51 -204 190 -341
336 -191 74 74 71 196 -5 278 l-25 26 31 74 c17 41 39 92 49 114 10 22 22 50
26 63 4 13 12 21 20 19 111 -43 282 -76 430 -84 66 -3 122 -8 125 -10 3 -2 5
-16 6 -31 2 -45 14 -193 20 -255 l6 -57 -45 -40 c-63 -56 -83 -121 -62 -203
39 -154 240 -196 343 -72 95 116 29 295 -120 320 -33 6 -38 11 -39 33 0 15 -2
36 -4 46 -2 11 -7 65 -10 120 -3 56 -8 113 -11 129 -4 24 -1 27 26 28 16 1 33
2 38 3 8 2 69 14 97 20 70 14 192 53 274 88 24 10 45 17 46 16 9 -11 107 -173
111 -183 3 -7 -7 -32 -23 -56 -24 -36 -28 -53 -28 -109 0 -57 4 -73 29 -108
43 -62 88 -87 161 -87 115 0 196 73 201 181 3 71 -8 101 -51 147 -47 49 -97
70 -161 65 l-52 -4 -53 89 c-30 50 -55 94 -57 97 -1 4 42 38 98 74 55 37 140
105 188 151 l88 83 54 -45 c30 -24 64 -52 75 -61 11 -9 53 -44 93 -76 61 -49
72 -63 67 -80 -4 -12 -9 -43 -10 -71 -14 -212 277 -288 372 -97 45 92 19 195
-62 251 -54 36 -142 44 -197 16 -41 -20 -49 -19 -78 8 -14 12 -52 44 -85 71
-116 93 -138 111 -173 142 l-36 31 34 44 c19 24 35 46 37 48 1 2 9 -1 17 -8
11 -10 21 -1 50 48 20 33 53 94 72 136 27 59 39 75 52 71 9 -3 78 -21 152 -41
212 -57 197 -49 203 -101 6 -57 47 -111 107 -141 172 -88 352 99 263 271 -62
120 -231 136 -328 31 l-32 -36 -169 47 c-93 25 -172 49 -176 53 -4 4 1 36 11
73 10 36 22 85 26 109 9 63 24 172 23 179 0 3 0 29 1 58 l1 52 66 0 c65 0 65
0 79 -35 28 -65 93 -112 166 -118 60 -5 97 6 143 45 173 143 18 410 -197 339
-42 -14 -91 -64 -112 -114 l-16 -38 -66 3 c-50 2 -67 7 -68 18 -1 8 -5 40 -9
72 -9 82 -43 218 -77 310 l-29 79 48 21 c26 11 101 45 167 74 l120 53 18 -29
c17 -27 44 -49 97 -79 32 -18 129 -23 175 -8 48 14 111 70 137 121 27 51 30
155 5 202 -50 96 -118 138 -222 138 -69 0 -84 -5 -147 -48 -27 -18 -77 -93
-83 -125 -2 -9 -4 -34 -4 -56 -1 -34 -5 -42 -28 -52 -128 -56 -182 -80 -291
-129 -29 -13 -56 -24 -60 -24 -4 0 -21 26 -38 58 -28 52 -30 60 -16 69 14 8 9
19 -33 79 -56 79 -182 212 -249 264 -25 19 -45 38 -46 43 0 12 172 237 182
237 5 0 18 -5 29 -11 29 -15 110 -13 150 4 72 30 121 104 121 182 0 150 -158
244 -293 175 -90 -47 -131 -169 -85 -257 l16 -31 -101 -134 c-56 -73 -105
-137 -109 -142 -5 -5 -28 4 -54 20 -36 23 -43 31 -35 46 8 15 0 22 -48 46 -32
16 -98 44 -146 63 -48 18 -86 37 -84 43 3 6 19 65 37 131 66 245 58 225 91
225 38 0 96 30 130 67 52 56 64 147 28 219 -43 90 -140 129 -240 98z"/>
</g>
</svg>
